<?xml version="1.0" encoding="UTF-8"?>
<svg width="189px" height="45px" viewBox="0 0 189 45" version="1.1" xmlns="http://www.w3.org/2000/svg" xmlns:xlink="http://www.w3.org/1999/xlink">
    <!-- Generator: sketchtool 58 (101010) - https://sketch.com -->
    <title>7C17A011-67CD-4CDC-9336-3CA4F646A376</title>
    <desc>Created with sketchtool.</desc>
    <defs>
        <linearGradient x1="0%" y1="50%" x2="100%" y2="50%" id="linearGradient-1">
            <stop stop-color="#DAE907" offset="0%"></stop>
            <stop stop-color="#BFC304" offset="87%"></stop>
        </linearGradient>
        <linearGradient x1="-15.970183%" y1="50.0903546%" x2="65.4167608%" y2="49.9774113%" id="linearGradient-2">
            <stop stop-color="#DAE907" offset="0%"></stop>
            <stop stop-color="#BFC304" offset="87%"></stop>
        </linearGradient>
    </defs>
    <g id="Page-1" stroke="none" stroke-width="1" fill="none" fill-rule="evenodd">
        <g id="Desktop-HD-Copy-5" transform="translate(-35.000000, -51.000000)">
            <g id="Recurso-3" transform="translate(35.000000, 51.000000)">
                <path d="M76.1275862,22.9189655 L76.1275862,26.3327586 C71.3606897,25.6562069 68.6141379,28.1606897 68.6141379,32.6886207 L68.6141379,44.1527586 L64.6168966,44.1527586 L64.6168966,22.9189655 L68.13,22.9189655 L68.6141379,26.1465517 C69.3341379,23.9306897 71.5034483,22.7327584 74.1041379,22.7327584 C74.7829046,22.7327584 75.4602434,22.7949584 76.1275862,22.9189655 L76.1275862,22.9189655 Z" id="Path" fill="#FFFFFF" fill-rule="nonzero"></path>
                <path d="M100.604483,22.9189655 L100.604483,44.1589655 L96.8462069,44.1589655 L96.8462069,40.4037931 C95.4527586,42.9548276 92.4144828,44.7486207 88.6593103,44.7486207 C82.7844828,44.7486207 78.5917241,40.3168966 78.5917241,33.6196552 C78.5917241,26.792069 82.8775862,22.3013793 88.947931,22.3013793 C92.5603448,22.3013793 95.4651724,23.8531034 96.9424138,26.3358621 L97.2775862,22.922069 L100.604483,22.9189655 Z M96.5172414,33.417931 C96.5172414,28.7968966 93.7241379,25.9044828 89.6306897,25.9044828 C85.3913793,25.9044828 82.6913793,28.9862069 82.6913793,33.5141379 C82.6913793,38.0917241 85.437931,41.1268966 89.5189655,41.1268966 C93.7241379,41.1268966 96.5172414,38.0917241 96.5172414,33.417931 Z" id="Shape" fill="#FFFFFF" fill-rule="nonzero"></path>
                <path d="M108.81,22.9189655 L111.314483,29.6131034 C112.661379,33.1293103 115.11931,39.9196552 115.11931,39.9196552 C115.11931,39.9196552 117.72,32.9865517 119.07,29.6131034 L121.717241,22.9189655 L125.91,22.9189655 L117.046552,44.1589655 L113.04931,44.1589655 L104.474483,22.9189655 L108.81,22.9189655 Z" id="Path" fill="#FFFFFF" fill-rule="nonzero"></path>
                <path d="M138.491379,44.7393103 C131.974138,44.7393103 127.651034,40.2113793 127.651034,33.4675862 C127.651034,26.6772414 132.12931,22.2951724 138.345517,22.2951724 C144.45931,22.2951724 148.506207,26.487931 148.506207,32.3627586 C148.53582,33.1702658 148.471247,33.9784734 148.313793,34.7710345 L131.586207,34.7710345 C131.732069,38.8055172 134.478621,41.4651724 138.478966,41.4651724 C141.461379,41.4651724 143.823103,40.022069 144.642414,37.8062069 L148.540345,37.8062069 C147.593793,41.9927586 143.497241,44.7393103 138.491379,44.7393103 Z M144.45931,31.8786207 C144.412759,28.0706897 141.905172,25.6717241 138.292759,25.6717241 C134.491034,25.6717241 131.791034,28.08 131.651379,31.8786207 L144.45931,31.8786207 Z" id="Shape" fill="#FFFFFF" fill-rule="nonzero"></path>
                <path d="M172.26931,31.0096552 L172.26931,44.1589655 L168.234828,44.1589655 L168.234828,31.9251724 C168.234828,27.5431034 166.257931,25.9044828 163.371724,25.9044828 C159.756207,25.9044828 157.636552,28.3127586 157.636552,31.5868966 L157.636552,44.1093103 L153.62069,44.1093103 L153.62069,22.9189655 L156.941379,22.9189655 L157.344828,25.9044828 C158.645172,23.732069 161.37931,22.292069 164.327586,22.292069 C169.041724,22.292069 172.26931,25.3768966 172.26931,31.0096552 Z" id="Path" fill="#FFFFFF" fill-rule="nonzero"></path>
                <polygon id="Path" fill="#FFFFFF" fill-rule="nonzero" points="188.801379 26.2427586 184.611724 26.2427586 184.611724 44.1589655 180.62069 44.1589655 180.62069 26.2427586 176.468276 26.2427586 176.468276 22.9189655 180.62069 22.9189655 180.62069 17.2831034 184.617931 17.2831034 184.617931 22.9189655 188.807586 22.9189655"></polygon>
                <path d="M48.7489655,21.6931034 C46.0452659,21.6907287 43.4274392,22.6424658 41.3565517,24.3806897 L41.3565517,10.17 L37.2413755,10.17 L37.2413755,32.8965517 C37.2413755,32.8965517 37.2413755,32.8965517 37.2413755,32.8965517 C37.2413755,32.9958621 37.2413755,33.0951724 37.2413755,33.2068966 C37.237616,37.8698135 40.0444223,42.0753913 44.3519175,43.8609705 C48.6594128,45.6465497 53.618448,44.660134 56.9147401,41.3620639 C60.2110323,38.0639938 61.1947738,33.1044274 59.4068721,28.7978957 C57.6189704,24.4913639 53.4118797,21.6868258 48.7489655,21.6931034 L48.7489655,21.6931034 Z M48.7489655,40.527931 C44.7120245,40.527931 41.4389593,37.2562471 41.4372473,33.2193064 C41.4355367,29.1823657 44.7058269,25.9079112 48.7427665,25.9044827 C52.7797061,25.9010595 56.0555492,29.1699588 56.0606956,33.2068966 C56.063161,35.147699 55.2939119,37.0098574 53.9224297,38.383086 C52.5509475,39.7563145 50.6897695,40.527931 48.7489655,40.527931 L48.7489655,40.527931 Z" id="Shape" fill="#FFFFFF"></path>
                <polyline id="Path" fill="url(#linearGradient-1)" points="10.7441379 11.5168966 10.7441379 44.7393103 0 44.7393103 0 0"></polyline>
                <path d="M27.477931,31.0003448 C27.477931,38.588166 21.3267867,44.7393103 13.7389655,44.7393103 L10.7441379,44.7393103 C4.22689655,44.7393103 0,37.7565517 0,31.0003448 C0,23.4125237 6.15114438,17.2613793 13.7389655,17.2613793 C21.3267867,17.2613793 27.477931,23.4125237 27.477931,31.0003448 L27.477931,31.0003448 Z" id="Path" fill="url(#linearGradient-2)"></path>
                <path d="M0.176896552,33.1137931 C0.176896552,33.1137931 3.52241379,13.9158621 27.1241379,27.6517241 C27.1241379,27.6517241 25.5910345,17.8572414 14.4434483,17.2613793 C4.58068966,16.7337931 -1.05827586,25.1875862 0.176896552,33.1137931 Z" id="Path" fill="#000000" fill-rule="nonzero" opacity="0.05"></path>
            </g>
        </g>
    </g>
</svg>